<?xml version="1.0" encoding="UTF-8" standalone="no"?>
<!DOCTYPE svg PUBLIC "-//W3C//DTD SVG 1.1//EN"
 "http://www.w3.org/Graphics/SVG/1.1/DTD/svg11.dtd">
<!-- Generated by graphviz version 2.38.0 (20140413.2041)
 -->
<!-- Title: G Pages: 1 -->
<svg width="462pt" height="217pt"
 viewBox="0.00 0.00 462.00 217.00" xmlns="http://www.w3.org/2000/svg" xmlns:xlink="http://www.w3.org/1999/xlink">
<g id="graph0" class="graph" transform="scale(1 1) rotate(0) translate(4 213)">
<title>G</title>
<polygon fill="white" stroke="none" points="-4,4 -4,-213 458,-213 458,4 -4,4"/>
<!-- java.lang.ref.PhantomReference -->
<g id="node1" class="node"><title>java.lang.ref.PhantomReference</title>
<g id="a_node1"><a xlink:href="../../../java/lang/ref/PhantomReference.html" xlink:title="java.lang.ref.PhantomReference">
<text text-anchor="middle" x="382" y="-101.4" font-family="DejaVuSans" font-size="12.00" fill="#e76f00">PhantomReference</text>
</a>
</g>
</g>
<!-- java.lang.ref.Reference -->
<g id="node2" class="node"><title>java.lang.ref.Reference</title>
<g id="a_node2"><a xlink:href="../../../java/lang/ref/Reference.html" xlink:title="java.lang.ref.Reference">
<text text-anchor="middle" x="212" y="-185.4" font-family="DejaVuSans" font-size="12.00" fill="#e76f00">Reference</text>
</a>
</g>
</g>
<!-- java.lang.ref.PhantomReference&#45;&gt;java.lang.ref.Reference -->
<g id="edge1" class="edge"><title>java.lang.ref.PhantomReference&#45;&gt;java.lang.ref.Reference</title>
<path fill="none" stroke="#999999" stroke-width="2" d="M341.281,-125.141C317.397,-136.661 287.043,-151.303 261.75,-163.503"/>
<polygon fill="#999999" stroke="#999999" stroke-width="2" points="252.681,-167.877 259.733,-159.48 256.967,-165.255 261.471,-163.082 261.688,-163.533 261.905,-163.983 257.402,-166.155 263.643,-167.586 252.681,-167.877 252.681,-167.877"/>
</g>
<!-- open node #0 -->
<g id="node3" class="node"><title>open node #0</title>
<g id="a_node3"><a xlink:title="Non&#45;sealed Hierarchy">
<text text-anchor="start" x="361" y="-18.4" font-family="DejaVuSans" font-style="italic" font-size="12.00" fill="#e76f00">&lt;any&gt;</text>
</a>
</g>
</g>
<!-- open node #0&#45;&gt;java.lang.ref.PhantomReference -->
<g id="edge2" class="edge"><title>open node #0&#45;&gt;java.lang.ref.PhantomReference</title>
<path fill="none" stroke="#999999" stroke-width="2" stroke-dasharray="5,2" d="M382,-41.3499C382,-51.0192 382,-62.8498 382,-73.5843"/>
<polygon fill="#999999" stroke="#999999" stroke-width="2" points="382,-83.8329 377.5,-73.8328 381.5,-78.8329 381.5,-73.8329 382,-73.8329 382.5,-73.8329 382.5,-78.8329 386.5,-73.8329 382,-83.8329 382,-83.8329"/>
</g>
<!-- java.lang.ref.SoftReference -->
<g id="node4" class="node"><title>java.lang.ref.SoftReference</title>
<g id="a_node4"><a xlink:href="../../../java/lang/ref/SoftReference.html" xlink:title="java.lang.ref.SoftReference">
<text text-anchor="middle" x="57" y="-101.4" font-family="DejaVuSans" font-size="12.00" fill="#e76f00">SoftReference</text>
</a>
</g>
</g>
<!-- java.lang.ref.SoftReference&#45;&gt;java.lang.ref.Reference -->
<g id="edge3" class="edge"><title>java.lang.ref.SoftReference&#45;&gt;java.lang.ref.Reference</title>
<path fill="none" stroke="#999999" stroke-width="2" d="M94.1264,-125.141C115.711,-136.56 143.093,-151.046 166.032,-163.182"/>
<polygon fill="#999999" stroke="#999999" stroke-width="2" points="174.908,-167.877 163.965,-167.179 170.255,-165.981 165.835,-163.643 166.069,-163.201 166.303,-162.759 170.722,-165.097 168.173,-159.223 174.908,-167.877 174.908,-167.877"/>
</g>
<!-- open node #1 -->
<g id="node5" class="node"><title>open node #1</title>
<g id="a_node5"><a xlink:title="Non&#45;sealed Hierarchy">
<text text-anchor="start" x="36" y="-18.4" font-family="DejaVuSans" font-style="italic" font-size="12.00" fill="#e76f00">&lt;any&gt;</text>
</a>
</g>
</g>
<!-- open node #1&#45;&gt;java.lang.ref.SoftReference -->
<g id="edge4" class="edge"><title>open node #1&#45;&gt;java.lang.ref.SoftReference</title>
<path fill="none" stroke="#999999" stroke-width="2" stroke-dasharray="5,2" d="M57,-41.3499C57,-51.0192 57,-62.8498 57,-73.5843"/>
<polygon fill="#999999" stroke="#999999" stroke-width="2" points="57,-83.8329 52.5001,-73.8328 56.5,-78.8329 56.5001,-73.8329 57.0001,-73.8329 57.5001,-73.8329 57.5,-78.8329 61.5001,-73.8329 57,-83.8329 57,-83.8329"/>
</g>
<!-- java.lang.ref.WeakReference -->
<g id="node6" class="node"><title>java.lang.ref.WeakReference</title>
<g id="a_node6"><a xlink:href="../../../java/lang/ref/WeakReference.html" xlink:title="java.lang.ref.WeakReference">
<text text-anchor="middle" x="212" y="-101.4" font-family="DejaVuSans" font-size="12.00" fill="#e76f00">WeakReference</text>
</a>
</g>
</g>
<!-- java.lang.ref.WeakReference&#45;&gt;java.lang.ref.Reference -->
<g id="edge5" class="edge"><title>java.lang.ref.WeakReference&#45;&gt;java.lang.ref.Reference</title>
<path fill="none" stroke="#999999" stroke-width="2" d="M212,-125.35C212,-135.019 212,-146.85 212,-157.584"/>
<polygon fill="#999999" stroke="#999999" stroke-width="2" points="212,-167.833 207.5,-157.833 211.5,-162.833 211.5,-157.833 212,-157.833 212.5,-157.833 212.5,-162.833 216.5,-157.833 212,-167.833 212,-167.833"/>
</g>
<!-- open node #2 -->
<g id="node7" class="node"><title>open node #2</title>
<g id="a_node7"><a xlink:title="Non&#45;sealed Hierarchy">
<text text-anchor="start" x="191" y="-18.4" font-family="DejaVuSans" font-style="italic" font-size="12.00" fill="#e76f00">&lt;any&gt;</text>
</a>
</g>
</g>
<!-- open node #2&#45;&gt;java.lang.ref.WeakReference -->
<g id="edge6" class="edge"><title>open node #2&#45;&gt;java.lang.ref.WeakReference</title>
<path fill="none" stroke="#999999" stroke-width="2" stroke-dasharray="5,2" d="M212,-41.3499C212,-51.0192 212,-62.8498 212,-73.5843"/>
<polygon fill="#999999" stroke="#999999" stroke-width="2" points="212,-83.8329 207.5,-73.8328 211.5,-78.8329 211.5,-73.8329 212,-73.8329 212.5,-73.8329 212.5,-78.8329 216.5,-73.8329 212,-83.8329 212,-83.8329"/>
</g>
</g>
</svg>
