<?xml version="1.0" encoding="UTF-8" standalone="no"?>
<!DOCTYPE svg PUBLIC "-//W3C//DTD SVG 1.1//EN"
 "http://www.w3.org/Graphics/SVG/1.1/DTD/svg11.dtd">
<!-- Generated by graphviz version 2.38.0 (20140413.2041)
 -->
<!-- Title: G Pages: 1 -->
<svg width="444pt" height="217pt"
 viewBox="0.00 0.00 443.50 217.00" xmlns="http://www.w3.org/2000/svg" xmlns:xlink="http://www.w3.org/1999/xlink">
<g id="graph0" class="graph" transform="scale(1 1) rotate(0) translate(4 213)">
<title>G</title>
<polygon fill="white" stroke="none" points="-4,4 -4,-213 439.5,-213 439.5,4 -4,4"/>
<!-- java.lang.invoke.ConstantCallSite -->
<g id="node1" class="node"><title>java.lang.invoke.ConstantCallSite</title>
<g id="a_node1"><a xlink:href="../../../java/lang/invoke/ConstantCallSite.html" xlink:title="java.lang.invoke.ConstantCallSite">
<text text-anchor="middle" x="372.5" y="-101.4" font-family="DejaVuSans" font-size="12.00" fill="#e76f00">ConstantCallSite</text>
</a>
</g>
</g>
<!-- java.lang.invoke.CallSite -->
<g id="node2" class="node"><title>java.lang.invoke.CallSite</title>
<g id="a_node2"><a xlink:href="../../../java/lang/invoke/CallSite.html" xlink:title="java.lang.invoke.CallSite">
<text text-anchor="middle" x="215.5" y="-185.4" font-family="DejaVuSans" font-size="12.00" fill="#e76f00">CallSite</text>
</a>
</g>
</g>
<!-- java.lang.invoke.ConstantCallSite&#45;&gt;java.lang.invoke.CallSite -->
<g id="edge1" class="edge"><title>java.lang.invoke.ConstantCallSite&#45;&gt;java.lang.invoke.CallSite</title>
<path fill="none" stroke="#999999" stroke-width="2" d="M334.895,-125.141C312.791,-136.686 284.685,-151.365 261.297,-163.581"/>
<polygon fill="#999999" stroke="#999999" stroke-width="2" points="252.257,-168.302 259.037,-159.684 256.457,-165.544 260.889,-163.229 261.121,-163.673 261.352,-164.116 256.92,-166.431 263.204,-167.661 252.257,-168.302 252.257,-168.302"/>
</g>
<!-- open node #0 -->
<g id="node3" class="node"><title>open node #0</title>
<g id="a_node3"><a xlink:title="Non&#45;sealed Hierarchy">
<text text-anchor="start" x="351.5" y="-18.4" font-family="DejaVuSans" font-style="italic" font-size="12.00" fill="#e76f00">&lt;any&gt;</text>
</a>
</g>
</g>
<!-- open node #0&#45;&gt;java.lang.invoke.ConstantCallSite -->
<g id="edge2" class="edge"><title>open node #0&#45;&gt;java.lang.invoke.ConstantCallSite</title>
<path fill="none" stroke="#999999" stroke-width="2" stroke-dasharray="5,2" d="M372.5,-41.3499C372.5,-51.0192 372.5,-62.8498 372.5,-73.5843"/>
<polygon fill="#999999" stroke="#999999" stroke-width="2" points="372.5,-83.8329 368,-73.8328 372,-78.8329 372,-73.8329 372.5,-73.8329 373,-73.8329 373,-78.8329 377,-73.8329 372.5,-83.8329 372.5,-83.8329"/>
</g>
<!-- java.lang.invoke.MutableCallSite -->
<g id="node4" class="node"><title>java.lang.invoke.MutableCallSite</title>
<g id="a_node4"><a xlink:href="../../../java/lang/invoke/MutableCallSite.html" xlink:title="java.lang.invoke.MutableCallSite">
<text text-anchor="middle" x="60.5" y="-101.4" font-family="DejaVuSans" font-size="12.00" fill="#e76f00">MutableCallSite</text>
</a>
</g>
</g>
<!-- java.lang.invoke.MutableCallSite&#45;&gt;java.lang.invoke.CallSite -->
<g id="edge3" class="edge"><title>java.lang.invoke.MutableCallSite&#45;&gt;java.lang.invoke.CallSite</title>
<path fill="none" stroke="#999999" stroke-width="2" d="M97.6264,-125.141C119.369,-136.644 146.995,-151.259 170.036,-163.448"/>
<polygon fill="#999999" stroke="#999999" stroke-width="2" points="178.944,-168.161 168.001,-167.462 174.291,-166.265 169.871,-163.927 170.105,-163.485 170.339,-163.043 174.758,-165.381 172.209,-159.507 178.944,-168.161 178.944,-168.161"/>
</g>
<!-- open node #1 -->
<g id="node5" class="node"><title>open node #1</title>
<g id="a_node5"><a xlink:title="Non&#45;sealed Hierarchy">
<text text-anchor="start" x="39.5" y="-18.4" font-family="DejaVuSans" font-style="italic" font-size="12.00" fill="#e76f00">&lt;any&gt;</text>
</a>
</g>
</g>
<!-- open node #1&#45;&gt;java.lang.invoke.MutableCallSite -->
<g id="edge4" class="edge"><title>open node #1&#45;&gt;java.lang.invoke.MutableCallSite</title>
<path fill="none" stroke="#999999" stroke-width="2" stroke-dasharray="5,2" d="M60.5,-41.3499C60.5,-51.0192 60.5,-62.8498 60.5,-73.5843"/>
<polygon fill="#999999" stroke="#999999" stroke-width="2" points="60.5,-83.8329 56.0001,-73.8328 60,-78.8329 60.0001,-73.8329 60.5001,-73.8329 61.0001,-73.8329 61,-78.8329 65.0001,-73.8329 60.5,-83.8329 60.5,-83.8329"/>
</g>
<!-- java.lang.invoke.VolatileCallSite -->
<g id="node6" class="node"><title>java.lang.invoke.VolatileCallSite</title>
<g id="a_node6"><a xlink:href="../../../java/lang/invoke/VolatileCallSite.html" xlink:title="java.lang.invoke.VolatileCallSite">
<text text-anchor="middle" x="215.5" y="-101.4" font-family="DejaVuSans" font-size="12.00" fill="#e76f00">VolatileCallSite</text>
</a>
</g>
</g>
<!-- java.lang.invoke.VolatileCallSite&#45;&gt;java.lang.invoke.CallSite -->
<g id="edge5" class="edge"><title>java.lang.invoke.VolatileCallSite&#45;&gt;java.lang.invoke.CallSite</title>
<path fill="none" stroke="#999999" stroke-width="2" d="M215.5,-125.35C215.5,-135.019 215.5,-146.85 215.5,-157.584"/>
<polygon fill="#999999" stroke="#999999" stroke-width="2" points="215.5,-167.833 211,-157.833 215,-162.833 215,-157.833 215.5,-157.833 216,-157.833 216,-162.833 220,-157.833 215.5,-167.833 215.5,-167.833"/>
</g>
<!-- open node #2 -->
<g id="node7" class="node"><title>open node #2</title>
<g id="a_node7"><a xlink:title="Non&#45;sealed Hierarchy">
<text text-anchor="start" x="194.5" y="-18.4" font-family="DejaVuSans" font-style="italic" font-size="12.00" fill="#e76f00">&lt;any&gt;</text>
</a>
</g>
</g>
<!-- open node #2&#45;&gt;java.lang.invoke.VolatileCallSite -->
<g id="edge6" class="edge"><title>open node #2&#45;&gt;java.lang.invoke.VolatileCallSite</title>
<path fill="none" stroke="#999999" stroke-width="2" stroke-dasharray="5,2" d="M215.5,-41.3499C215.5,-51.0192 215.5,-62.8498 215.5,-73.5843"/>
<polygon fill="#999999" stroke="#999999" stroke-width="2" points="215.5,-83.8329 211,-73.8328 215,-78.8329 215,-73.8329 215.5,-73.8329 216,-73.8329 216,-78.8329 220,-73.8329 215.5,-83.8329 215.5,-83.8329"/>
</g>
</g>
</svg>
