<?xml version="1.0" encoding="UTF-8" standalone="no"?>
<!DOCTYPE svg PUBLIC "-//W3C//DTD SVG 1.1//EN"
 "http://www.w3.org/Graphics/SVG/1.1/DTD/svg11.dtd">
<!-- Generated by graphviz version 2.38.0 (20140413.2041)
 -->
<!-- Title: G Pages: 1 -->
<svg width="206pt" height="217pt"
 viewBox="0.00 0.00 205.50 217.00" xmlns="http://www.w3.org/2000/svg" xmlns:xlink="http://www.w3.org/1999/xlink">
<g id="graph0" class="graph" transform="scale(1 1) rotate(0) translate(4 213)">
<title>G</title>
<polygon fill="white" stroke="none" points="-4,4 -4,-213 201.5,-213 201.5,4 -4,4"/>
<!-- java.awt.TextArea -->
<g id="node1" class="node"><title>java.awt.TextArea</title>
<g id="a_node1"><a xlink:href="../../java/awt/TextArea.html" xlink:title="java.awt.TextArea">
<text text-anchor="middle" x="157" y="-101.4" font-family="DejaVuSans" font-size="12.00" fill="#e76f00">TextArea</text>
</a>
</g>
</g>
<!-- java.awt.TextComponent -->
<g id="node2" class="node"><title>java.awt.TextComponent</title>
<g id="a_node2"><a xlink:href="../../java/awt/TextComponent.html" xlink:title="java.awt.TextComponent">
<text text-anchor="middle" x="98" y="-185.4" font-family="DejaVuSans" font-size="12.00" fill="#e76f00">TextComponent</text>
</a>
</g>
</g>
<!-- java.awt.TextArea&#45;&gt;java.awt.TextComponent -->
<g id="edge1" class="edge"><title>java.awt.TextArea&#45;&gt;java.awt.TextComponent</title>
<path fill="none" stroke="#999999" stroke-width="2" d="M142.718,-125.35C135.326,-135.624 126.178,-148.337 118.086,-159.583"/>
<polygon fill="#999999" stroke="#999999" stroke-width="2" points="112.151,-167.833 114.338,-157.087 114.665,-163.482 117.585,-159.424 117.991,-159.716 118.397,-160.008 115.477,-164.066 121.644,-162.344 112.151,-167.833 112.151,-167.833"/>
</g>
<!-- open node #0 -->
<g id="node3" class="node"><title>open node #0</title>
<g id="a_node3"><a xlink:title="Non&#45;sealed Hierarchy">
<text text-anchor="start" x="136" y="-18.4" font-family="DejaVuSans" font-style="italic" font-size="12.00" fill="#e76f00">&lt;any&gt;</text>
</a>
</g>
</g>
<!-- open node #0&#45;&gt;java.awt.TextArea -->
<g id="edge2" class="edge"><title>open node #0&#45;&gt;java.awt.TextArea</title>
<path fill="none" stroke="#999999" stroke-width="2" stroke-dasharray="5,2" d="M157,-41.3499C157,-51.0192 157,-62.8498 157,-73.5843"/>
<polygon fill="#999999" stroke="#999999" stroke-width="2" points="157,-83.8329 152.5,-73.8328 156.5,-78.8329 156.5,-73.8329 157,-73.8329 157.5,-73.8329 157.5,-78.8329 161.5,-73.8329 157,-83.8329 157,-83.8329"/>
</g>
<!-- java.awt.TextField -->
<g id="node4" class="node"><title>java.awt.TextField</title>
<g id="a_node4"><a xlink:href="../../java/awt/TextField.html" xlink:title="java.awt.TextField">
<text text-anchor="middle" x="40" y="-101.4" font-family="DejaVuSans" font-size="12.00" fill="#e76f00">TextField</text>
</a>
</g>
</g>
<!-- java.awt.TextField&#45;&gt;java.awt.TextComponent -->
<g id="edge3" class="edge"><title>java.awt.TextField&#45;&gt;java.awt.TextComponent</title>
<path fill="none" stroke="#999999" stroke-width="2" d="M54.0402,-125.35C61.3069,-135.624 70.2994,-148.337 78.2541,-159.583"/>
<polygon fill="#999999" stroke="#999999" stroke-width="2" points="84.0891,-167.833 74.6405,-162.267 80.7936,-164.04 77.9062,-159.957 78.3144,-159.669 78.7226,-159.38 81.61,-163.462 81.9883,-157.07 84.0891,-167.833 84.0891,-167.833"/>
</g>
<!-- open node #1 -->
<g id="node5" class="node"><title>open node #1</title>
<g id="a_node5"><a xlink:title="Non&#45;sealed Hierarchy">
<text text-anchor="start" x="19" y="-18.4" font-family="DejaVuSans" font-style="italic" font-size="12.00" fill="#e76f00">&lt;any&gt;</text>
</a>
</g>
</g>
<!-- open node #1&#45;&gt;java.awt.TextField -->
<g id="edge4" class="edge"><title>open node #1&#45;&gt;java.awt.TextField</title>
<path fill="none" stroke="#999999" stroke-width="2" stroke-dasharray="5,2" d="M40,-41.3499C40,-51.0192 40,-62.8498 40,-73.5843"/>
<polygon fill="#999999" stroke="#999999" stroke-width="2" points="40,-83.8329 35.5001,-73.8328 39.5,-78.8329 39.5001,-73.8329 40.0001,-73.8329 40.5001,-73.8329 40.5,-78.8329 44.5001,-73.8329 40,-83.8329 40,-83.8329"/>
</g>
</g>
</svg>
