<?xml version="1.0" encoding="UTF-8" standalone="no"?>
<!DOCTYPE svg PUBLIC "-//W3C//DTD SVG 1.1//EN"
 "http://www.w3.org/Graphics/SVG/1.1/DTD/svg11.dtd">
<!-- Generated by graphviz version 2.38.0 (20140413.2041)
 -->
<!-- Title: G Pages: 1 -->
<svg width="230pt" height="217pt"
 viewBox="0.00 0.00 229.50 217.00" xmlns="http://www.w3.org/2000/svg" xmlns:xlink="http://www.w3.org/1999/xlink">
<g id="graph0" class="graph" transform="scale(1 1) rotate(0) translate(4 213)">
<title>G</title>
<polygon fill="white" stroke="none" points="-4,4 -4,-213 225.5,-213 225.5,4 -4,4"/>
<!-- java.awt.event.KeyEvent -->
<g id="node1" class="node"><title>java.awt.event.KeyEvent</title>
<g id="a_node1"><a xlink:href="../../../java/awt/event/KeyEvent.html" xlink:title="java.awt.event.KeyEvent">
<text text-anchor="middle" x="179.5" y="-101.4" font-family="DejaVuSans" font-size="12.00" fill="#e76f00">KeyEvent</text>
</a>
</g>
</g>
<!-- java.awt.event.InputEvent -->
<g id="node2" class="node"><title>java.awt.event.InputEvent</title>
<g id="a_node2"><a xlink:href="../../../java/awt/event/InputEvent.html" xlink:title="java.awt.event.InputEvent">
<text text-anchor="middle" x="114.5" y="-185.4" font-family="DejaVuSans" font-size="12.00" fill="#e76f00">InputEvent</text>
</a>
</g>
</g>
<!-- java.awt.event.KeyEvent&#45;&gt;java.awt.event.InputEvent -->
<g id="edge1" class="edge"><title>java.awt.event.KeyEvent&#45;&gt;java.awt.event.InputEvent</title>
<path fill="none" stroke="#999999" stroke-width="2" d="M163.765,-125.35C155.542,-135.724 145.346,-148.587 136.367,-159.914"/>
<polygon fill="#999999" stroke="#999999" stroke-width="2" points="130.09,-167.833 132.775,-157.201 132.804,-163.604 135.91,-159.686 136.302,-159.996 136.694,-160.307 133.588,-164.225 139.828,-162.792 130.09,-167.833 130.09,-167.833"/>
</g>
<!-- open node #0 -->
<g id="node3" class="node"><title>open node #0</title>
<g id="a_node3"><a xlink:title="Non&#45;sealed Hierarchy">
<text text-anchor="start" x="158.5" y="-18.4" font-family="DejaVuSans" font-style="italic" font-size="12.00" fill="#e76f00">&lt;any&gt;</text>
</a>
</g>
</g>
<!-- open node #0&#45;&gt;java.awt.event.KeyEvent -->
<g id="edge2" class="edge"><title>open node #0&#45;&gt;java.awt.event.KeyEvent</title>
<path fill="none" stroke="#999999" stroke-width="2" stroke-dasharray="5,2" d="M179.5,-41.3499C179.5,-51.0192 179.5,-62.8498 179.5,-73.5843"/>
<polygon fill="#999999" stroke="#999999" stroke-width="2" points="179.5,-83.8329 175,-73.8328 179,-78.8329 179,-73.8329 179.5,-73.8329 180,-73.8329 180,-78.8329 184,-73.8329 179.5,-83.8329 179.5,-83.8329"/>
</g>
<!-- java.awt.event.MouseEvent -->
<g id="node4" class="node"><title>java.awt.event.MouseEvent</title>
<g id="a_node4"><a xlink:href="../../../java/awt/event/MouseEvent.html" xlink:title="java.awt.event.MouseEvent">
<text text-anchor="middle" x="50.5" y="-101.4" font-family="DejaVuSans" font-size="12.00" fill="#e76f00">MouseEvent</text>
</a>
</g>
</g>
<!-- java.awt.event.MouseEvent&#45;&gt;java.awt.event.InputEvent -->
<g id="edge3" class="edge"><title>java.awt.event.MouseEvent&#45;&gt;java.awt.event.InputEvent</title>
<path fill="none" stroke="#999999" stroke-width="2" d="M65.9926,-125.35C74.0897,-135.724 84.1286,-148.587 92.9693,-159.914"/>
<polygon fill="#999999" stroke="#999999" stroke-width="2" points="99.1501,-167.833 89.4499,-162.718 95.6795,-164.199 92.6032,-160.257 92.9973,-159.95 93.3915,-159.642 96.4678,-163.584 96.5447,-157.181 99.1501,-167.833 99.1501,-167.833"/>
</g>
<!-- open node #1 -->
<g id="node5" class="node"><title>open node #1</title>
<g id="a_node5"><a xlink:title="Non&#45;sealed Hierarchy">
<text text-anchor="start" x="29.5" y="-18.4" font-family="DejaVuSans" font-style="italic" font-size="12.00" fill="#e76f00">&lt;any&gt;</text>
</a>
</g>
</g>
<!-- open node #1&#45;&gt;java.awt.event.MouseEvent -->
<g id="edge4" class="edge"><title>open node #1&#45;&gt;java.awt.event.MouseEvent</title>
<path fill="none" stroke="#999999" stroke-width="2" stroke-dasharray="5,2" d="M50.5,-41.3499C50.5,-51.0192 50.5,-62.8498 50.5,-73.5843"/>
<polygon fill="#999999" stroke="#999999" stroke-width="2" points="50.5,-83.8329 46.0001,-73.8328 50,-78.8329 50.0001,-73.8329 50.5001,-73.8329 51.0001,-73.8329 51,-78.8329 55.0001,-73.8329 50.5,-83.8329 50.5,-83.8329"/>
</g>
</g>
</svg>
