<?xml version="1.0" encoding="UTF-8" standalone="no"?>
<!DOCTYPE svg PUBLIC "-//W3C//DTD SVG 1.1//EN"
 "http://www.w3.org/Graphics/SVG/1.1/DTD/svg11.dtd">
<!-- Generated by graphviz version 2.38.0 (20140413.2041)
 -->
<!-- Title: G Pages: 1 -->
<svg width="254pt" height="133pt"
 viewBox="0.00 0.00 253.50 133.00" xmlns="http://www.w3.org/2000/svg" xmlns:xlink="http://www.w3.org/1999/xlink">
<g id="graph0" class="graph" transform="scale(1 1) rotate(0) translate(4 129)">
<title>G</title>
<polygon fill="white" stroke="none" points="-4,4 -4,-129 249.5,-129 249.5,4 -4,4"/>
<!-- java.lang.foreign.StructLayout -->
<g id="node1" class="node"><title>java.lang.foreign.StructLayout</title>
<g id="a_node1"><a xlink:href="../../../java/lang/foreign/StructLayout.html" xlink:title="java.lang.foreign.StructLayout">
<text text-anchor="middle" x="52.5" y="-17.4" font-family="DejaVuSans" font-size="12.00" fill="#e76f00">StructLayout</text>
</a>
</g>
</g>
<!-- java.lang.foreign.GroupLayout -->
<g id="node2" class="node"><title>java.lang.foreign.GroupLayout</title>
<g id="a_node2"><a xlink:href="../../../java/lang/foreign/GroupLayout.html" xlink:title="java.lang.foreign.GroupLayout">
<text text-anchor="middle" x="122.5" y="-101.4" font-family="DejaVuSans" font-size="12.00" fill="#e76f00">GroupLayout</text>
</a>
</g>
</g>
<!-- java.lang.foreign.StructLayout&#45;&gt;java.lang.foreign.GroupLayout -->
<g id="edge1" class="edge"><title>java.lang.foreign.StructLayout&#45;&gt;java.lang.foreign.GroupLayout</title>
<path fill="none" stroke="#999999" stroke-width="2" d="M69.445,-41.3499C78.3012,-51.7243 89.2812,-64.5866 98.9508,-75.9138"/>
<polygon fill="#999999" stroke="#999999" stroke-width="2" points="105.711,-83.8329 95.7958,-79.1489 102.084,-80.3547 98.8381,-76.5519 99.2183,-76.2272 99.5986,-75.9026 102.845,-79.7054 102.641,-73.3055 105.711,-83.8329 105.711,-83.8329"/>
</g>
<!-- java.lang.foreign.UnionLayout -->
<g id="node3" class="node"><title>java.lang.foreign.UnionLayout</title>
<g id="a_node3"><a xlink:href="../../../java/lang/foreign/UnionLayout.html" xlink:title="java.lang.foreign.UnionLayout">
<text text-anchor="middle" x="193.5" y="-17.4" font-family="DejaVuSans" font-size="12.00" fill="#e76f00">UnionLayout</text>
</a>
</g>
</g>
<!-- java.lang.foreign.UnionLayout&#45;&gt;java.lang.foreign.GroupLayout -->
<g id="edge2" class="edge"><title>java.lang.foreign.UnionLayout&#45;&gt;java.lang.foreign.GroupLayout</title>
<path fill="none" stroke="#999999" stroke-width="2" d="M176.313,-41.3499C167.243,-51.825 155.977,-64.8366 146.1,-76.2433"/>
<polygon fill="#999999" stroke="#999999" stroke-width="2" points="139.529,-83.8329 142.673,-73.3273 142.424,-79.7256 145.697,-75.9456 146.075,-76.2729 146.453,-76.6002 143.18,-80.3802 149.477,-79.2186 139.529,-83.8329 139.529,-83.8329"/>
</g>
</g>
</svg>
