<?xml version="1.0" encoding="UTF-8" standalone="no"?>
<!DOCTYPE svg PUBLIC "-//W3C//DTD SVG 1.1//EN"
 "http://www.w3.org/Graphics/SVG/1.1/DTD/svg11.dtd">
<!-- Generated by graphviz version 2.38.0 (20140413.2041)
 -->
<!-- Title: G Pages: 1 -->
<svg width="1316pt" height="217pt"
 viewBox="0.00 0.00 1315.50 217.00" xmlns="http://www.w3.org/2000/svg" xmlns:xlink="http://www.w3.org/1999/xlink">
<g id="graph0" class="graph" transform="scale(1 1) rotate(0) translate(4 213)">
<title>G</title>
<polygon fill="white" stroke="none" points="-4,4 -4,-213 1311.5,-213 1311.5,4 -4,4"/>
<!-- java.lang.foreign.SequenceLayout -->
<g id="node1" class="node"><title>java.lang.foreign.SequenceLayout</title>
<g id="a_node1"><a xlink:href="../../../java/lang/foreign/SequenceLayout.html" xlink:title="java.lang.foreign.SequenceLayout">
<text text-anchor="middle" x="64" y="-101.4" font-family="DejaVuSans" font-size="12.00" fill="#e76f00">SequenceLayout</text>
</a>
</g>
</g>
<!-- java.lang.foreign.MemoryLayout -->
<g id="node2" class="node"><title>java.lang.foreign.MemoryLayout</title>
<g id="a_node2"><a xlink:href="../../../java/lang/foreign/MemoryLayout.html" xlink:title="java.lang.foreign.MemoryLayout">
<text text-anchor="middle" x="290" y="-185.4" font-family="DejaVuSans" font-size="12.00" fill="#e76f00">MemoryLayout</text>
</a>
</g>
</g>
<!-- java.lang.foreign.SequenceLayout&#45;&gt;java.lang.foreign.MemoryLayout -->
<g id="edge1" class="edge"><title>java.lang.foreign.SequenceLayout&#45;&gt;java.lang.foreign.MemoryLayout</title>
<path fill="none" stroke="#999999" stroke-width="2" d="M117.846,-125.037C150.544,-136.901 192.447,-152.105 226.724,-164.541"/>
<polygon fill="#999999" stroke="#999999" stroke-width="2" points="236.176,-167.971 225.241,-168.79 231.305,-166.735 226.605,-165.03 226.775,-164.56 226.946,-164.09 231.646,-165.795 228.31,-160.33 236.176,-167.971 236.176,-167.971"/>
</g>
<!-- java.lang.foreign.GroupLayout -->
<g id="node3" class="node"><title>java.lang.foreign.GroupLayout</title>
<g id="a_node3"><a xlink:href="../../../java/lang/foreign/GroupLayout.html" xlink:title="java.lang.foreign.GroupLayout">
<text text-anchor="middle" x="217" y="-101.4" font-family="DejaVuSans" font-size="12.00" fill="#e76f00">GroupLayout</text>
</a>
</g>
</g>
<!-- java.lang.foreign.GroupLayout&#45;&gt;java.lang.foreign.MemoryLayout -->
<g id="edge2" class="edge"><title>java.lang.foreign.GroupLayout&#45;&gt;java.lang.foreign.MemoryLayout</title>
<path fill="none" stroke="#999999" stroke-width="2" d="M234.671,-125.35C243.997,-135.825 255.58,-148.837 265.735,-160.243"/>
<polygon fill="#999999" stroke="#999999" stroke-width="2" points="272.491,-167.833 262.481,-163.356 268.793,-164.431 265.469,-160.696 265.842,-160.364 266.216,-160.031 269.54,-163.766 269.203,-157.372 272.491,-167.833 272.491,-167.833"/>
</g>
<!-- java.lang.foreign.StructLayout -->
<g id="node4" class="node"><title>java.lang.foreign.StructLayout</title>
<g id="a_node4"><a xlink:href="../../../java/lang/foreign/StructLayout.html" xlink:title="java.lang.foreign.StructLayout">
<text text-anchor="middle" x="76" y="-17.4" font-family="DejaVuSans" font-size="12.00" fill="#e76f00">StructLayout</text>
</a>
</g>
</g>
<!-- java.lang.foreign.StructLayout&#45;&gt;java.lang.foreign.GroupLayout -->
<g id="edge3" class="edge"><title>java.lang.foreign.StructLayout&#45;&gt;java.lang.foreign.GroupLayout</title>
<path fill="none" stroke="#999999" stroke-width="2" d="M109.773,-41.141C129.077,-52.3673 153.477,-66.5577 174.123,-78.5647"/>
<polygon fill="#999999" stroke="#999999" stroke-width="2" points="183.014,-83.735 172.107,-82.5977 178.44,-81.6536 174.118,-79.1399 174.369,-78.7077 174.621,-78.2755 178.943,-80.7891 176.632,-74.8177 183.014,-83.735 183.014,-83.735"/>
</g>
<!-- java.lang.foreign.UnionLayout -->
<g id="node5" class="node"><title>java.lang.foreign.UnionLayout</title>
<g id="a_node5"><a xlink:href="../../../java/lang/foreign/UnionLayout.html" xlink:title="java.lang.foreign.UnionLayout">
<text text-anchor="middle" x="217" y="-17.4" font-family="DejaVuSans" font-size="12.00" fill="#e76f00">UnionLayout</text>
</a>
</g>
</g>
<!-- java.lang.foreign.UnionLayout&#45;&gt;java.lang.foreign.GroupLayout -->
<g id="edge4" class="edge"><title>java.lang.foreign.UnionLayout&#45;&gt;java.lang.foreign.GroupLayout</title>
<path fill="none" stroke="#999999" stroke-width="2" d="M217,-41.3499C217,-51.0192 217,-62.8498 217,-73.5843"/>
<polygon fill="#999999" stroke="#999999" stroke-width="2" points="217,-83.8329 212.5,-73.8328 216.5,-78.8329 216.5,-73.8329 217,-73.8329 217.5,-73.8329 217.5,-78.8329 221.5,-73.8329 217,-83.8329 217,-83.8329"/>
</g>
<!-- java.lang.foreign.PaddingLayout -->
<g id="node6" class="node"><title>java.lang.foreign.PaddingLayout</title>
<g id="a_node6"><a xlink:href="../../../java/lang/foreign/PaddingLayout.html" xlink:title="java.lang.foreign.PaddingLayout">
<text text-anchor="middle" x="364" y="-101.4" font-family="DejaVuSans" font-size="12.00" fill="#e76f00">PaddingLayout</text>
</a>
</g>
</g>
<!-- java.lang.foreign.PaddingLayout&#45;&gt;java.lang.foreign.MemoryLayout -->
<g id="edge5" class="edge"><title>java.lang.foreign.PaddingLayout&#45;&gt;java.lang.foreign.MemoryLayout</title>
<path fill="none" stroke="#999999" stroke-width="2" d="M346.087,-125.35C336.634,-135.825 324.891,-148.837 314.598,-160.243"/>
<polygon fill="#999999" stroke="#999999" stroke-width="2" points="307.748,-167.833 311.107,-157.394 310.727,-163.786 314.077,-160.074 314.448,-160.409 314.819,-160.744 311.469,-164.456 317.789,-163.424 307.748,-167.833 307.748,-167.833"/>
</g>
<!-- java.lang.foreign.ValueLayout -->
<g id="node7" class="node"><title>java.lang.foreign.ValueLayout</title>
<g id="a_node7"><a xlink:href="../../../java/lang/foreign/ValueLayout.html" xlink:title="java.lang.foreign.ValueLayout">
<text text-anchor="middle" x="735" y="-101.4" font-family="DejaVuSans" font-size="12.00" fill="#e76f00">ValueLayout</text>
</a>
</g>
</g>
<!-- java.lang.foreign.ValueLayout&#45;&gt;java.lang.foreign.MemoryLayout -->
<g id="edge6" class="edge"><title>java.lang.foreign.ValueLayout&#45;&gt;java.lang.foreign.MemoryLayout</title>
<path fill="none" stroke="#999999" stroke-width="2" d="M683.953,-114.906C604.076,-129.625 449.397,-158.128 359.453,-174.702"/>
<polygon fill="#999999" stroke="#999999" stroke-width="2" points="349.618,-176.514 358.637,-170.276 354.444,-175.116 359.362,-174.21 359.452,-174.702 359.543,-175.194 354.626,-176.1 360.268,-179.127 349.618,-176.514 349.618,-176.514"/>
</g>
<!-- java.lang.foreign.ValueLayout.OfBoolean -->
<g id="node8" class="node"><title>java.lang.foreign.ValueLayout.OfBoolean</title>
<g id="a_node8"><a xlink:href="../../../java/lang/foreign/OfBoolean.html" xlink:title="java.lang.foreign.ValueLayout.OfBoolean">
<text text-anchor="middle" x="351" y="-17.4" font-family="DejaVuSans" font-size="12.00" fill="#e76f00">OfBoolean</text>
</a>
</g>
</g>
<!-- java.lang.foreign.ValueLayout.OfBoolean&#45;&gt;java.lang.foreign.ValueLayout -->
<g id="edge7" class="edge"><title>java.lang.foreign.ValueLayout.OfBoolean&#45;&gt;java.lang.foreign.ValueLayout</title>
<path fill="none" stroke="#999999" stroke-width="2" d="M397.334,-36.23C403.254,-37.9311 409.252,-39.567 415,-41 504.281,-63.2577 609.202,-82.4488 673.903,-93.4936"/>
<polygon fill="#999999" stroke="#999999" stroke-width="2" points="683.933,-95.1955 673.321,-97.9592 678.92,-94.852 673.99,-94.0155 674.074,-93.5226 674.158,-93.0296 679.087,-93.8661 674.827,-89.086 683.933,-95.1955 683.933,-95.1955"/>
</g>
<!-- java.lang.foreign.ValueLayout.OfByte -->
<g id="node9" class="node"><title>java.lang.foreign.ValueLayout.OfByte</title>
<g id="a_node9"><a xlink:href="../../../java/lang/foreign/OfByte.html" xlink:title="java.lang.foreign.ValueLayout.OfByte">
<text text-anchor="middle" x="468" y="-17.4" font-family="DejaVuSans" font-size="12.00" fill="#e76f00">OfByte</text>
</a>
</g>
</g>
<!-- java.lang.foreign.ValueLayout.OfByte&#45;&gt;java.lang.foreign.ValueLayout -->
<g id="edge8" class="edge"><title>java.lang.foreign.ValueLayout.OfByte&#45;&gt;java.lang.foreign.ValueLayout</title>
<path fill="none" stroke="#999999" stroke-width="2" d="M503.233,-34.8447C509.141,-36.9725 515.227,-39.0973 521,-41 572.155,-57.8589 630.931,-74.8574 673.926,-86.862"/>
<polygon fill="#999999" stroke="#999999" stroke-width="2" points="683.675,-89.574 672.835,-91.2293 678.724,-88.7157 673.907,-87.3756 674.041,-86.8939 674.175,-86.4122 678.992,-87.7522 675.247,-82.5585 683.675,-89.574 683.675,-89.574"/>
</g>
<!-- java.lang.foreign.ValueLayout.OfChar -->
<g id="node10" class="node"><title>java.lang.foreign.ValueLayout.OfChar</title>
<g id="a_node10"><a xlink:href="../../../java/lang/foreign/OfChar.html" xlink:title="java.lang.foreign.ValueLayout.OfChar">
<text text-anchor="middle" x="575" y="-17.4" font-family="DejaVuSans" font-size="12.00" fill="#e76f00">OfChar</text>
</a>
</g>
</g>
<!-- java.lang.foreign.ValueLayout.OfChar&#45;&gt;java.lang.foreign.ValueLayout -->
<g id="edge9" class="edge"><title>java.lang.foreign.ValueLayout.OfChar&#45;&gt;java.lang.foreign.ValueLayout</title>
<path fill="none" stroke="#999999" stroke-width="2" d="M610.509,-39.6985C633.204,-51.3295 662.903,-66.5503 687.601,-79.208"/>
<polygon fill="#999999" stroke="#999999" stroke-width="2" points="696.797,-83.9208 685.845,-83.3646 692.119,-82.0853 687.669,-79.8048 687.897,-79.3599 688.125,-78.9149 692.575,-81.1954 689.95,-75.3552 696.797,-83.9208 696.797,-83.9208"/>
</g>
<!-- java.lang.foreign.ValueLayout.OfShort -->
<g id="node11" class="node"><title>java.lang.foreign.ValueLayout.OfShort</title>
<g id="a_node11"><a xlink:href="../../../java/lang/foreign/OfShort.html" xlink:title="java.lang.foreign.ValueLayout.OfShort">
<text text-anchor="middle" x="684" y="-17.4" font-family="DejaVuSans" font-size="12.00" fill="#e76f00">OfShort</text>
</a>
</g>
</g>
<!-- java.lang.foreign.ValueLayout.OfShort&#45;&gt;java.lang.foreign.ValueLayout -->
<g id="edge10" class="edge"><title>java.lang.foreign.ValueLayout.OfShort&#45;&gt;java.lang.foreign.ValueLayout</title>
<path fill="none" stroke="#999999" stroke-width="2" d="M696.346,-41.3499C702.673,-51.5229 710.488,-64.088 717.431,-75.2522"/>
<polygon fill="#999999" stroke="#999999" stroke-width="2" points="722.768,-83.8329 713.665,-77.7179 719.703,-79.8511 717.062,-75.6053 717.487,-75.3413 717.911,-75.0772 720.552,-79.323 721.308,-72.9646 722.768,-83.8329 722.768,-83.8329"/>
</g>
<!-- java.lang.foreign.ValueLayout.OfInt -->
<g id="node12" class="node"><title>java.lang.foreign.ValueLayout.OfInt</title>
<g id="a_node12"><a xlink:href="../../../java/lang/foreign/OfInt.html" xlink:title="java.lang.foreign.ValueLayout.OfInt">
<text text-anchor="middle" x="787" y="-17.4" font-family="DejaVuSans" font-size="12.00" fill="#e76f00">OfInt</text>
</a>
</g>
</g>
<!-- java.lang.foreign.ValueLayout.OfInt&#45;&gt;java.lang.foreign.ValueLayout -->
<g id="edge11" class="edge"><title>java.lang.foreign.ValueLayout.OfInt&#45;&gt;java.lang.foreign.ValueLayout</title>
<path fill="none" stroke="#999999" stroke-width="2" d="M774.412,-41.3499C767.961,-51.5229 759.993,-64.088 752.913,-75.2522"/>
<polygon fill="#999999" stroke="#999999" stroke-width="2" points="747.472,-83.8329 749.027,-72.9778 749.727,-79.3426 752.405,-75.12 752.827,-75.3878 753.25,-75.6556 750.572,-79.8781 756.628,-77.7977 747.472,-83.8329 747.472,-83.8329"/>
</g>
<!-- java.lang.foreign.ValueLayout.OfFloat -->
<g id="node13" class="node"><title>java.lang.foreign.ValueLayout.OfFloat</title>
<g id="a_node13"><a xlink:href="../../../java/lang/foreign/OfFloat.html" xlink:title="java.lang.foreign.ValueLayout.OfFloat">
<text text-anchor="middle" x="889" y="-17.4" font-family="DejaVuSans" font-size="12.00" fill="#e76f00">OfFloat</text>
</a>
</g>
</g>
<!-- java.lang.foreign.ValueLayout.OfFloat&#45;&gt;java.lang.foreign.ValueLayout -->
<g id="edge12" class="edge"><title>java.lang.foreign.ValueLayout.OfFloat&#45;&gt;java.lang.foreign.ValueLayout</title>
<path fill="none" stroke="#999999" stroke-width="2" d="M852.894,-40.7254C831.311,-52.2176 803.689,-66.9253 780.608,-79.2152"/>
<polygon fill="#999999" stroke="#999999" stroke-width="2" points="771.681,-83.9684 778.393,-75.2964 775.86,-81.1771 780.273,-78.8271 780.508,-79.2684 780.743,-79.7098 776.33,-82.0598 782.623,-83.2405 771.681,-83.9684 771.681,-83.9684"/>
</g>
<!-- java.lang.foreign.ValueLayout.OfLong -->
<g id="node14" class="node"><title>java.lang.foreign.ValueLayout.OfLong</title>
<g id="a_node14"><a xlink:href="../../../java/lang/foreign/OfLong.html" xlink:title="java.lang.foreign.ValueLayout.OfLong">
<text text-anchor="middle" x="997" y="-17.4" font-family="DejaVuSans" font-size="12.00" fill="#e76f00">OfLong</text>
</a>
</g>
</g>
<!-- java.lang.foreign.ValueLayout.OfLong&#45;&gt;java.lang.foreign.ValueLayout -->
<g id="edge13" class="edge"><title>java.lang.foreign.ValueLayout.OfLong&#45;&gt;java.lang.foreign.ValueLayout</title>
<path fill="none" stroke="#999999" stroke-width="2" d="M960.786,-34.8848C954.861,-36.9859 948.773,-39.0919 943,-41 893.781,-57.268 837.439,-74.0881 795.82,-86.1757"/>
<polygon fill="#999999" stroke="#999999" stroke-width="2" points="786.105,-88.9889 794.459,-81.8849 790.768,-87.1178 795.571,-85.727 795.71,-86.2073 795.849,-86.6875 791.047,-88.0783 796.962,-90.5297 786.105,-88.9889 786.105,-88.9889"/>
</g>
<!-- java.lang.foreign.ValueLayout.OfDouble -->
<g id="node15" class="node"><title>java.lang.foreign.ValueLayout.OfDouble</title>
<g id="a_node15"><a xlink:href="../../../java/lang/foreign/OfDouble.html" xlink:title="java.lang.foreign.ValueLayout.OfDouble">
<text text-anchor="middle" x="1112" y="-17.4" font-family="DejaVuSans" font-size="12.00" fill="#e76f00">OfDouble</text>
</a>
</g>
</g>
<!-- java.lang.foreign.ValueLayout.OfDouble&#45;&gt;java.lang.foreign.ValueLayout -->
<g id="edge14" class="edge"><title>java.lang.foreign.ValueLayout.OfDouble&#45;&gt;java.lang.foreign.ValueLayout</title>
<path fill="none" stroke="#999999" stroke-width="2" d="M1069.19,-35.863C1063.11,-37.7025 1056.92,-39.4733 1051,-41 963.23,-63.6299 859.931,-82.6575 795.95,-93.5732"/>
<polygon fill="#999999" stroke="#999999" stroke-width="2" points="786.027,-95.2548 795.134,-89.1471 790.873,-93.9263 795.803,-93.0909 795.886,-93.5839 795.97,-94.0768 791.04,-94.9123 796.638,-98.0206 786.027,-95.2548 786.027,-95.2548"/>
</g>
<!-- java.lang.foreign.AddressLayout -->
<g id="node16" class="node"><title>java.lang.foreign.AddressLayout</title>
<g id="a_node16"><a xlink:href="../../../java/lang/foreign/AddressLayout.html" xlink:title="java.lang.foreign.AddressLayout">
<text text-anchor="middle" x="1249" y="-17.4" font-family="DejaVuSans" font-size="12.00" fill="#e76f00">AddressLayout</text>
</a>
</g>
</g>
<!-- java.lang.foreign.AddressLayout&#45;&gt;java.lang.foreign.ValueLayout -->
<g id="edge15" class="edge"><title>java.lang.foreign.AddressLayout&#45;&gt;java.lang.foreign.ValueLayout</title>
<path fill="none" stroke="#999999" stroke-width="2" d="M1190.23,-37.2566C1184.43,-38.6081 1178.61,-39.8833 1173,-41 1039.62,-67.5451 881.226,-87.2678 796.218,-96.9078"/>
<polygon fill="#999999" stroke="#999999" stroke-width="2" points="786.222,-98.0332 795.656,-92.4426 791.135,-96.9769 796.103,-96.4175 796.159,-96.9144 796.215,-97.4112 791.247,-97.9707 796.663,-101.386 786.222,-98.0332 786.222,-98.0332"/>
</g>
</g>
</svg>
