<?xml version="1.0" encoding="UTF-8" standalone="no"?>
<!DOCTYPE svg PUBLIC "-//W3C//DTD SVG 1.1//EN"
 "http://www.w3.org/Graphics/SVG/1.1/DTD/svg11.dtd">
<!-- Generated by graphviz version 2.38.0 (20140413.2041)
 -->
<!-- Title: G Pages: 1 -->
<svg width="1011pt" height="133pt"
 viewBox="0.00 0.00 1010.50 133.00" xmlns="http://www.w3.org/2000/svg" xmlns:xlink="http://www.w3.org/1999/xlink">
<g id="graph0" class="graph" transform="scale(1 1) rotate(0) translate(4 129)">
<title>G</title>
<polygon fill="white" stroke="none" points="-4,4 -4,-129 1006.5,-129 1006.5,4 -4,4"/>
<!-- java.lang.foreign.ValueLayout.OfBoolean -->
<g id="node1" class="node"><title>java.lang.foreign.ValueLayout.OfBoolean</title>
<g id="a_node1"><a xlink:href="../../../java/lang/foreign/OfBoolean.html" xlink:title="java.lang.foreign.ValueLayout.OfBoolean">
<text text-anchor="middle" x="46" y="-17.4" font-family="DejaVuSans" font-size="12.00" fill="#e76f00">OfBoolean</text>
</a>
</g>
</g>
<!-- java.lang.foreign.ValueLayout -->
<g id="node2" class="node"><title>java.lang.foreign.ValueLayout</title>
<g id="a_node2"><a xlink:href="../../../java/lang/foreign/ValueLayout.html" xlink:title="java.lang.foreign.ValueLayout">
<text text-anchor="middle" x="482" y="-101.4" font-family="DejaVuSans" font-size="12.00" fill="#e76f00">ValueLayout</text>
</a>
</g>
</g>
<!-- java.lang.foreign.ValueLayout.OfBoolean&#45;&gt;java.lang.foreign.ValueLayout -->
<g id="edge1" class="edge"><title>java.lang.foreign.ValueLayout.OfBoolean&#45;&gt;java.lang.foreign.ValueLayout</title>
<path fill="none" stroke="#999999" stroke-width="2" d="M92.2989,-36.3763C98.2248,-38.053 104.234,-39.6431 110,-41 218.221,-66.4653 346.501,-85.6413 420.644,-95.6708"/>
<polygon fill="#999999" stroke="#999999" stroke-width="2" points="430.739,-97.025 420.23,-100.155 425.717,-96.8557 420.761,-96.1909 420.828,-95.6953 420.894,-95.1998 425.85,-95.8646 421.426,-91.2353 430.739,-97.025 430.739,-97.025"/>
</g>
<!-- java.lang.foreign.ValueLayout.OfByte -->
<g id="node3" class="node"><title>java.lang.foreign.ValueLayout.OfByte</title>
<g id="a_node3"><a xlink:href="../../../java/lang/foreign/OfByte.html" xlink:title="java.lang.foreign.ValueLayout.OfByte">
<text text-anchor="middle" x="163" y="-17.4" font-family="DejaVuSans" font-size="12.00" fill="#e76f00">OfByte</text>
</a>
</g>
</g>
<!-- java.lang.foreign.ValueLayout.OfByte&#45;&gt;java.lang.foreign.ValueLayout -->
<g id="edge2" class="edge"><title>java.lang.foreign.ValueLayout.OfByte&#45;&gt;java.lang.foreign.ValueLayout</title>
<path fill="none" stroke="#999999" stroke-width="2" d="M198.149,-35.1113C204.067,-37.207 210.178,-39.2521 216,-41 285.291,-61.8031 366.427,-80.0012 420.704,-91.315"/>
<polygon fill="#999999" stroke="#999999" stroke-width="2" points="430.517,-93.3465 419.813,-95.7258 425.52,-92.8225 420.624,-91.8089 420.725,-91.3192 420.826,-90.8296 425.722,-91.8433 421.637,-86.9127 430.517,-93.3465 430.517,-93.3465"/>
</g>
<!-- java.lang.foreign.ValueLayout.OfChar -->
<g id="node4" class="node"><title>java.lang.foreign.ValueLayout.OfChar</title>
<g id="a_node4"><a xlink:href="../../../java/lang/foreign/OfChar.html" xlink:title="java.lang.foreign.ValueLayout.OfChar">
<text text-anchor="middle" x="270" y="-17.4" font-family="DejaVuSans" font-size="12.00" fill="#e76f00">OfChar</text>
</a>
</g>
</g>
<!-- java.lang.foreign.ValueLayout.OfChar&#45;&gt;java.lang.foreign.ValueLayout -->
<g id="edge3" class="edge"><title>java.lang.foreign.ValueLayout.OfChar&#45;&gt;java.lang.foreign.ValueLayout</title>
<path fill="none" stroke="#999999" stroke-width="2" d="M305.963,-35.4102C337.628,-47.6581 384.387,-65.744 421.756,-80.1982"/>
<polygon fill="#999999" stroke="#999999" stroke-width="2" points="431.532,-83.9794 420.582,-84.5689 426.688,-82.642 422.025,-80.8382 422.205,-80.3719 422.386,-79.9055 427.049,-81.7093 423.829,-76.1749 431.532,-83.9794 431.532,-83.9794"/>
</g>
<!-- java.lang.foreign.ValueLayout.OfShort -->
<g id="node5" class="node"><title>java.lang.foreign.ValueLayout.OfShort</title>
<g id="a_node5"><a xlink:href="../../../java/lang/foreign/OfShort.html" xlink:title="java.lang.foreign.ValueLayout.OfShort">
<text text-anchor="middle" x="379" y="-17.4" font-family="DejaVuSans" font-size="12.00" fill="#e76f00">OfShort</text>
</a>
</g>
</g>
<!-- java.lang.foreign.ValueLayout.OfShort&#45;&gt;java.lang.foreign.ValueLayout -->
<g id="edge4" class="edge"><title>java.lang.foreign.ValueLayout.OfShort&#45;&gt;java.lang.foreign.ValueLayout</title>
<path fill="none" stroke="#999999" stroke-width="2" d="M403.671,-41.141C417.33,-52.0149 434.482,-65.6698 449.251,-77.4277"/>
<polygon fill="#999999" stroke="#999999" stroke-width="2" points="457.173,-83.735 446.547,-81.0272 452.95,-81.012 449.038,-77.8978 449.35,-77.5066 449.661,-77.1154 453.573,-80.2296 452.153,-73.986 457.173,-83.735 457.173,-83.735"/>
</g>
<!-- java.lang.foreign.ValueLayout.OfInt -->
<g id="node6" class="node"><title>java.lang.foreign.ValueLayout.OfInt</title>
<g id="a_node6"><a xlink:href="../../../java/lang/foreign/OfInt.html" xlink:title="java.lang.foreign.ValueLayout.OfInt">
<text text-anchor="middle" x="482" y="-17.4" font-family="DejaVuSans" font-size="12.00" fill="#e76f00">OfInt</text>
</a>
</g>
</g>
<!-- java.lang.foreign.ValueLayout.OfInt&#45;&gt;java.lang.foreign.ValueLayout -->
<g id="edge5" class="edge"><title>java.lang.foreign.ValueLayout.OfInt&#45;&gt;java.lang.foreign.ValueLayout</title>
<path fill="none" stroke="#999999" stroke-width="2" d="M482,-41.3499C482,-51.0192 482,-62.8498 482,-73.5843"/>
<polygon fill="#999999" stroke="#999999" stroke-width="2" points="482,-83.8329 477.5,-73.8328 481.5,-78.8329 481.5,-73.8329 482,-73.8329 482.5,-73.8329 482.5,-78.8329 486.5,-73.8329 482,-83.8329 482,-83.8329"/>
</g>
<!-- java.lang.foreign.ValueLayout.OfFloat -->
<g id="node7" class="node"><title>java.lang.foreign.ValueLayout.OfFloat</title>
<g id="a_node7"><a xlink:href="../../../java/lang/foreign/OfFloat.html" xlink:title="java.lang.foreign.ValueLayout.OfFloat">
<text text-anchor="middle" x="584" y="-17.4" font-family="DejaVuSans" font-size="12.00" fill="#e76f00">OfFloat</text>
</a>
</g>
</g>
<!-- java.lang.foreign.ValueLayout.OfFloat&#45;&gt;java.lang.foreign.ValueLayout -->
<g id="edge6" class="edge"><title>java.lang.foreign.ValueLayout.OfFloat&#45;&gt;java.lang.foreign.ValueLayout</title>
<path fill="none" stroke="#999999" stroke-width="2" d="M559.568,-41.141C546.042,-52.0149 529.057,-65.6698 514.431,-77.4277"/>
<polygon fill="#999999" stroke="#999999" stroke-width="2" points="506.586,-83.735 511.56,-73.9622 510.169,-80.2125 514.066,-77.0797 514.379,-77.4694 514.693,-77.8591 510.796,-80.9919 517.199,-80.9766 506.586,-83.735 506.586,-83.735"/>
</g>
<!-- java.lang.foreign.ValueLayout.OfLong -->
<g id="node8" class="node"><title>java.lang.foreign.ValueLayout.OfLong</title>
<g id="a_node8"><a xlink:href="../../../java/lang/foreign/OfLong.html" xlink:title="java.lang.foreign.ValueLayout.OfLong">
<text text-anchor="middle" x="692" y="-17.4" font-family="DejaVuSans" font-size="12.00" fill="#e76f00">OfLong</text>
</a>
</g>
</g>
<!-- java.lang.foreign.ValueLayout.OfLong&#45;&gt;java.lang.foreign.ValueLayout -->
<g id="edge7" class="edge"><title>java.lang.foreign.ValueLayout.OfLong&#45;&gt;java.lang.foreign.ValueLayout</title>
<path fill="none" stroke="#999999" stroke-width="2" d="M655.9,-35.5963C624.574,-47.8284 578.598,-65.7806 541.787,-80.1545"/>
<polygon fill="#999999" stroke="#999999" stroke-width="2" points="532.155,-83.9155 539.834,-76.0864 536.631,-81.6311 541.288,-79.8124 541.47,-80.2782 541.652,-80.7439 536.995,-82.5626 543.107,-84.47 532.155,-83.9155 532.155,-83.9155"/>
</g>
<!-- java.lang.foreign.ValueLayout.OfDouble -->
<g id="node9" class="node"><title>java.lang.foreign.ValueLayout.OfDouble</title>
<g id="a_node9"><a xlink:href="../../../java/lang/foreign/OfDouble.html" xlink:title="java.lang.foreign.ValueLayout.OfDouble">
<text text-anchor="middle" x="807" y="-17.4" font-family="DejaVuSans" font-size="12.00" fill="#e76f00">OfDouble</text>
</a>
</g>
</g>
<!-- java.lang.foreign.ValueLayout.OfDouble&#45;&gt;java.lang.foreign.ValueLayout -->
<g id="edge8" class="edge"><title>java.lang.foreign.ValueLayout.OfDouble&#45;&gt;java.lang.foreign.ValueLayout</title>
<path fill="none" stroke="#999999" stroke-width="2" d="M764.464,-35.5578C758.293,-37.4633 751.999,-39.3337 746,-41 677.146,-60.1253 597.176,-78.534 543.452,-90.3577"/>
<polygon fill="#999999" stroke="#999999" stroke-width="2" points="533.401,-92.5602 542.206,-86.0238 538.179,-91.0014 543.063,-89.931 543.17,-90.4195 543.277,-90.9079 538.393,-91.9782 544.133,-94.8152 533.401,-92.5602 533.401,-92.5602"/>
</g>
<!-- java.lang.foreign.AddressLayout -->
<g id="node10" class="node"><title>java.lang.foreign.AddressLayout</title>
<g id="a_node10"><a xlink:href="../../../java/lang/foreign/AddressLayout.html" xlink:title="java.lang.foreign.AddressLayout">
<text text-anchor="middle" x="944" y="-17.4" font-family="DejaVuSans" font-size="12.00" fill="#e76f00">AddressLayout</text>
</a>
</g>
</g>
<!-- java.lang.foreign.AddressLayout&#45;&gt;java.lang.foreign.ValueLayout -->
<g id="edge9" class="edge"><title>java.lang.foreign.AddressLayout&#45;&gt;java.lang.foreign.ValueLayout</title>
<path fill="none" stroke="#999999" stroke-width="2" d="M885.206,-37.1462C879.409,-38.5201 873.6,-39.8306 868,-41 754,-64.8031 619.453,-84.7702 543.088,-95.3537"/>
<polygon fill="#999999" stroke="#999999" stroke-width="2" points="533.161,-96.722 542.453,-90.8986 538.046,-95.5439 542.999,-94.8612 543.067,-95.3565 543.136,-95.8518 538.182,-96.5346 543.682,-99.8144 533.161,-96.722 533.161,-96.722"/>
</g>
</g>
</svg>
