<?xml version="1.0" encoding="UTF-8" standalone="no"?>
<!DOCTYPE svg PUBLIC "-//W3C//DTD SVG 1.1//EN"
 "http://www.w3.org/Graphics/SVG/1.1/DTD/svg11.dtd">
<!-- Generated by graphviz version 2.38.0 (20140413.2041)
 -->
<!-- Title: G Pages: 1 -->
<svg width="184pt" height="217pt"
 viewBox="0.00 0.00 184.00 217.00" xmlns="http://www.w3.org/2000/svg" xmlns:xlink="http://www.w3.org/1999/xlink">
<g id="graph0" class="graph" transform="scale(1 1) rotate(0) translate(4 213)">
<title>G</title>
<polygon fill="white" stroke="none" points="-4,4 -4,-213 180,-213 180,4 -4,4"/>
<!-- java.awt.geom.Path2D.Double -->
<g id="node1" class="node"><title>java.awt.geom.Path2D.Double</title>
<g id="a_node1"><a xlink:href="../../../java/awt/geom/Double.html" xlink:title="java.awt.geom.Path2D.Double">
<text text-anchor="middle" x="139" y="-101.4" font-family="DejaVuSans" font-size="12.00" fill="#e76f00">Double</text>
</a>
</g>
</g>
<!-- java.awt.geom.Path2D -->
<g id="node2" class="node"><title>java.awt.geom.Path2D</title>
<g id="a_node2"><a xlink:href="../../../java/awt/geom/Path2D.html" xlink:title="java.awt.geom.Path2D">
<text text-anchor="middle" x="87" y="-185.4" font-family="DejaVuSans" font-size="12.00" fill="#e76f00">Path2D</text>
</a>
</g>
</g>
<!-- java.awt.geom.Path2D.Double&#45;&gt;java.awt.geom.Path2D -->
<g id="edge1" class="edge"><title>java.awt.geom.Path2D.Double&#45;&gt;java.awt.geom.Path2D</title>
<path fill="none" stroke="#999999" stroke-width="2" d="M126.412,-125.35C119.961,-135.523 111.993,-148.088 104.913,-159.252"/>
<polygon fill="#999999" stroke="#999999" stroke-width="2" points="99.4718,-167.833 101.027,-156.978 101.727,-163.343 104.405,-159.12 104.827,-159.388 105.25,-159.656 102.572,-163.878 108.628,-161.798 99.4718,-167.833 99.4718,-167.833"/>
</g>
<!-- open node #0 -->
<g id="node3" class="node"><title>open node #0</title>
<g id="a_node3"><a xlink:title="Non&#45;sealed Hierarchy">
<text text-anchor="start" x="120" y="-18.4" font-family="DejaVuSans" font-style="italic" font-size="12.00" fill="#e76f00">&lt;any&gt;</text>
</a>
</g>
</g>
<!-- open node #0&#45;&gt;java.awt.geom.Path2D.Double -->
<g id="edge2" class="edge"><title>open node #0&#45;&gt;java.awt.geom.Path2D.Double</title>
<path fill="none" stroke="#999999" stroke-width="2" stroke-dasharray="5,2" d="M140.516,-41.3499C140.28,-51.0192 139.991,-62.8498 139.73,-73.5843"/>
<polygon fill="#999999" stroke="#999999" stroke-width="2" points="139.48,-83.8329 135.225,-73.7261 139.102,-78.8222 139.224,-73.8237 139.724,-73.8359 140.223,-73.8481 140.101,-78.8466 144.222,-73.9456 139.48,-83.8329 139.48,-83.8329"/>
</g>
<!-- java.awt.geom.Path2D.Float -->
<g id="node4" class="node"><title>java.awt.geom.Path2D.Float</title>
<g id="a_node4"><a xlink:href="../../../java/awt/geom/Float.html" xlink:title="java.awt.geom.Path2D.Float">
<text text-anchor="middle" x="36" y="-101.4" font-family="DejaVuSans" font-size="12.00" fill="#e76f00">Float</text>
</a>
</g>
</g>
<!-- java.awt.geom.Path2D.Float&#45;&gt;java.awt.geom.Path2D -->
<g id="edge3" class="edge"><title>java.awt.geom.Path2D.Float&#45;&gt;java.awt.geom.Path2D</title>
<path fill="none" stroke="#999999" stroke-width="2" d="M48.3457,-125.35C54.6728,-135.523 62.4877,-148.088 69.4313,-159.252"/>
<polygon fill="#999999" stroke="#999999" stroke-width="2" points="74.768,-167.833 65.6654,-161.718 71.7027,-163.851 69.062,-159.605 69.4866,-159.341 69.9112,-159.077 72.5519,-163.323 73.3078,-156.965 74.768,-167.833 74.768,-167.833"/>
</g>
<!-- open node #1 -->
<g id="node5" class="node"><title>open node #1</title>
<g id="a_node5"><a xlink:title="Non&#45;sealed Hierarchy">
<text text-anchor="start" x="14" y="-18.4" font-family="DejaVuSans" font-style="italic" font-size="12.00" fill="#e76f00">&lt;any&gt;</text>
</a>
</g>
</g>
<!-- open node #1&#45;&gt;java.awt.geom.Path2D.Float -->
<g id="edge4" class="edge"><title>open node #1&#45;&gt;java.awt.geom.Path2D.Float</title>
<path fill="none" stroke="#999999" stroke-width="2" stroke-dasharray="5,2" d="M35.2421,-41.3499C35.36,-51.0192 35.5043,-62.8498 35.6352,-73.5843"/>
<polygon fill="#999999" stroke="#999999" stroke-width="2" points="35.7602,-83.8329 31.1385,-73.8885 35.1992,-78.8394 35.1382,-73.8397 35.6381,-73.8336 36.1381,-73.8275 36.1991,-78.8272 40.1378,-73.7787 35.7602,-83.8329 35.7602,-83.8329"/>
</g>
</g>
</svg>
